<?xml version="1.0" standalone="no"?>
<!DOCTYPE svg PUBLIC "-//W3C//DTD SVG 20010904//EN"
 "http://www.w3.org/TR/2001/REC-SVG-20010904/DTD/svg10.dtd">
<svg version="1.0" xmlns="http://www.w3.org/2000/svg"
 width="200.000000pt" height="200.000000pt" viewBox="0 0 200.000000 200.000000"
 preserveAspectRatio="xMidYMid meet">
<metadata>
Created by potrace 1.14, written by Peter Selinger 2001-2017
</metadata>
<g transform="translate(0.000000,200.000000) scale(0.100000,-0.100000)"
fill="#000000" stroke="none">
<path d="M1345 1711 c-6 -4 -65 -18 -133 -31 -124 -22 -130 -25 -137 -59 -9
-45 34 -49 188 -15 32 7 32 7 10 -37 -15 -31 -15 -37 0 -94 19 -65 20 -70 31
-100 5 -11 14 -36 21 -55 13 -36 22 -38 70 -20 l22 9 -33 96 c-40 113 -40 123
-15 167 11 18 27 49 35 69 14 34 14 38 -3 58 -19 22 -41 27 -56 12z"/>
<path d="M374 1589 c-33 -12 -35 -34 -5 -81 43 -67 55 -76 98 -71 l39 4 28
-83 c16 -46 31 -88 33 -94 2 -7 -10 -11 -34 -11 -190 2 -361 -123 -408 -298
-14 -53 -15 -59 -16 -116 -3 -243 229 -443 472 -405 80 13 82 14 549 283 80
46 152 88 160 93 61 39 69 41 80 20 6 -11 16 -20 22 -20 6 0 9 2 6 6 -3 3 0
25 8 50 7 24 10 44 7 44 -3 0 0 7 7 15 10 12 8 16 -15 25 -15 6 -37 12 -49 15
-11 2 -21 4 -21 5 0 1 -13 4 -28 6 -25 4 -27 3 -18 -15 16 -29 14 -38 -13 -45
-14 -3 -31 -12 -38 -19 -7 -6 -43 -28 -80 -47 -37 -19 -68 -38 -68 -42 0 -5
-4 -8 -9 -8 -5 0 -96 -50 -203 -112 -248 -144 -282 -158 -373 -154 -100 4
-204 61 -243 133 -8 16 -22 42 -31 58 -20 38 -23 216 -3 223 6 2 10 7 7 12 -9
14 59 103 100 132 77 54 150 70 250 55 65 -9 158 -74 199 -139 l18 -27 43 21
44 21 -16 31 c-26 49 -98 119 -155 149 l-53 28 -33 97 c-17 53 -32 102 -32
108 0 7 30 17 66 24 53 10 68 17 77 37 12 27 -4 50 -40 57 -23 5 -139 18 -160
19 -7 0 -13 3 -13 6 0 3 -15 6 -32 6 -18 1 -49 3 -68 7 -20 3 -45 2 -56 -3z"/>
<path d="M1489 1256 c-2 -2 -22 -6 -44 -9 -22 -2 -57 -11 -78 -20 -20 -9 -38
-15 -40 -15 -1 1 -13 -5 -27 -14 -32 -20 -280 -163 -340 -196 -25 -14 -49 -28
-55 -32 -10 -8 -73 -43 -135 -76 -19 -11 -37 -22 -40 -25 -3 -3 -16 -12 -29
-19 -22 -11 -27 -10 -43 10 -10 12 -19 17 -19 11 -3 -21 -4 -26 -13 -39 -4 -7
-5 -16 -2 -19 3 -3 1 -12 -5 -20 -6 -7 -8 -13 -5 -13 4 0 2 -9 -4 -20 -9 -17
-6 -20 27 -29 21 -6 40 -10 43 -9 3 1 14 -4 26 -10 12 -6 25 -7 35 -1 10 6 10
9 2 9 -7 0 -13 8 -13 18 0 11 26 32 73 58 207 117 365 209 392 228 17 11 30
19 30 17 0 -3 18 7 40 21 66 41 147 80 180 86 116 19 213 -12 291 -94 60 -63
83 -127 81 -222 -4 -122 -61 -212 -172 -270 -67 -35 -196 -37 -263 -5 -49 23
-113 80 -138 123 l-17 28 -36 -20 c-49 -28 -53 -37 -28 -72 30 -42 106 -114
128 -121 11 -4 19 -11 19 -16 0 -5 7 -9 15 -9 8 0 23 -4 33 -9 14 -8 51 -19
82 -25 3 -1 11 -5 18 -9 7 -5 12 -4 12 3 0 6 4 9 9 5 15 -9 71 -13 71 -5 0 4
8 7 18 7 35 -2 129 33 172 64 83 60 132 126 164 223 55 163 -18 362 -168 462
-29 19 -62 36 -74 39 -12 2 -26 7 -32 10 -5 3 -26 8 -46 11 -21 2 -49 6 -64 9
-15 3 -29 3 -31 1z"/>
</g>
</svg>
