<?xml version="1.0" encoding="UTF-8"?>
<!DOCTYPE svg PUBLIC "-//W3C//DTD SVG 1.1//EN" "http://www.w3.org/Graphics/SVG/1.1/DTD/svg11.dtd">
<svg xmlns="http://www.w3.org/2000/svg" version="1.1" width="200px" height="200px" style="shape-rendering:geometricPrecision; text-rendering:geometricPrecision; image-rendering:optimizeQuality; fill-rule:evenodd; clip-rule:evenodd" xmlns:xlink="http://www.w3.org/1999/xlink">
<g><path style="opacity:0.775" fill="#000000" d="M 127.5,41.5 C 122.609,41.7463 117.776,42.4129 113,43.5C 106.507,40.7207 106.007,37.2207 111.5,33C 120.032,31.6613 128.532,30.1613 137,28.5C 142.812,28.3119 144.812,30.9786 143,36.5C 140.41,40.0912 138.243,43.9246 136.5,48C 138.641,54.7586 140.975,61.4252 143.5,68C 143.095,68.9454 142.428,69.6121 141.5,70C 138.898,71.1396 136.231,71.9729 133.5,72.5C 132.024,64.8292 129.858,57.8292 127,51.5C 126.341,48.1119 126.508,44.7786 127.5,41.5 Z M 127.5,41.5 C 127.639,39.663 128.306,39.3296 129.5,40.5C 129.043,41.2975 128.376,41.6309 127.5,41.5 Z"/></g>
<g><path style="opacity:0.818" fill="#000000" d="M 38.5,39.5 C 42.5138,39.3345 46.5138,39.5012 50.5,40C 59.3737,41.5482 68.2071,43.3815 77,45.5C 78.123,48.9563 77.2896,51.7897 74.5,54C 70.7276,54.406 67.0609,55.2393 63.5,56.5C 65.2515,63.0921 67.5849,69.4254 70.5,75.5C 79.6905,79.8951 86.6905,86.5618 91.5,95.5C 89.1638,98.0952 86.3305,100.095 83,101.5C 79.1886,96.3552 74.6886,91.8552 69.5,88C 51.7994,81.0429 37.966,85.5429 28,101.5C 22.6671,117.226 26.5005,130.059 39.5,140C 49.816,144.664 60.1494,144.664 70.5,140C 90.1667,128.5 109.833,117 129.5,105.5C 129.833,105.167 130.167,104.833 130.5,104.5C 129.5,103.167 128.5,101.833 127.5,100.5C 127.808,99.6919 128.308,99.0253 129,98.5C 133.99,99.7871 138.824,101.454 143.5,103.5C 144.203,108.964 142.869,113.964 139.5,118.5C 138.335,117.509 137.168,116.509 136,115.5C 114.356,127.823 92.6896,140.157 71,152.5C 48.012,159.619 30.1787,153.119 17.5,133C 8.61551,108.651 15.1155,89.8181 37,76.5C 43.954,74.1177 51.1206,72.951 58.5,73C 56.8135,67.7911 54.9801,62.6244 53,57.5C 49.9243,56.7117 46.7577,56.2117 43.5,56C 40.7062,52.2209 38.3729,48.2209 36.5,44C 37.0735,42.3933 37.7402,40.8933 38.5,39.5 Z"/></g>
<g><path style="opacity:0.818" fill="#000000" d="M 142.5,73.5 C 155.949,71.1954 167.949,74.1954 178.5,82.5C 192.307,95.0506 196.474,110.384 191,128.5C 179.646,151.553 161.48,159.719 136.5,153C 132.5,150.667 128.5,148.333 124.5,146C 120.996,142.523 117.83,138.689 115,134.5C 114.51,133.207 114.343,131.873 114.5,130.5C 118.074,129.033 121.74,128.2 125.5,128C 134.892,142.609 147.892,146.942 164.5,141C 179.795,131.875 184.629,118.708 179,101.5C 168.577,85.1936 154.41,80.8603 136.5,88.5C 116.19,100.324 95.8563,112.157 75.5,124C 77.845,125.724 78.345,127.557 77,129.5C 72.0728,128.351 67.2395,127.018 62.5,125.5C 63.2012,119.99 64.5345,114.656 66.5,109.5C 68.4321,110.145 69.5988,111.479 70,113.5C 91.14,100.927 112.473,88.5935 134,76.5C 136.98,75.5644 139.814,74.5644 142.5,73.5 Z"/></g>
</svg>
