<svg xmlns="http://www.w3.org/2000/svg" version="1.1" xmlns:xlink="http://www.w3.org/1999/xlink" xmlns:svgjs="http://svgjs.dev/svgjs" width="566.93" height="566.93"><svg version="1.1" id="SvgjsSvg1025" xmlns="http://www.w3.org/2000/svg" xmlns:xlink="http://www.w3.org/1999/xlink" x="0px" y="0px" viewBox="0 0 566.93 566.93" style="enable-background:new 0 0 566.93 566.93;" xml:space="preserve">
<style type="text/css">
	.st0{fill:#020203;}
</style>
<path class="st0" d="M430.84,210.38c-0.68,0.01-1.35,0-2.03,0.02c-19.79,0.47-39.76,5.64-58.13,16.16c-0.14,0.09-0.34,0.23-0.47,0.3
	L181.98,335.67l-8.63-14.93l-11.69,43.71l43.69,11.7l-8.62-14.93l16-9.23l103.19-59.56l67.5-39.08c0.52-0.32,1.01-0.63,1.54-0.93
	c0.14-0.09,0.34-0.08,0.47-0.13c44.67-25.52,101.58-10.16,127.33,34.46c25.83,44.76,10.44,101.9-34.29,127.75
	c-44.73,25.85-101.83,10.59-127.65-34.18c-1.19-2.06-2.22-4.18-3.23-6.3l-25.68,14.91c1.04,2.07,2.06,4.13,3.23,6.16
	c33.98,58.9,109.22,78.95,168.08,44.94c58.85-34.01,79.04-109.17,45.06-168.07C515.35,232.19,473.66,210.09,430.84,210.38z
	 M96.02,108.38c-4.26,0.3-8.28,3.01-10.16,6.84c-1.89,3.84-1.58,8.67,0.78,12.23l15.54,23.39c2.53,3.8,7.31,5.97,11.84,5.38
	l18.15-2.3l19.69,57.4c-6.16-0.77-12.38-1.08-18.62-0.91c-19.84,0.53-39.74,5.84-58.13,16.47C16.24,260.89-3.92,336.03,30.05,394.93
	c23.31,40.4,65.95,62.59,109.49,61.56c19.79-0.46,39.76-5.64,58.14-16.16c0.14-0.09,0.32-0.21,0.46-0.29l188.24-108.82l8.61,14.93
	l11.71-43.71L363,290.75l8.61,14.93l-15.98,9.24l-103.19,59.55l-67.52,39.1c-0.51,0.3-1,0.61-1.52,0.91
	c-0.14,0.09-0.34,0.1-0.47,0.15c-44.67,25.52-101.58,10.15-127.33-34.48c-25.82-44.76-10.44-101.89,34.29-127.73
	c44.73-25.85,101.83-10.6,127.65,34.16c1.19,2.06,2.21,4.2,3.23,6.31l25.68-14.93c-1.04-2.07-2.06-4.13-3.23-6.16
	c-14.72-25.52-37.18-43.72-62.73-53.4l-9.24-26.63l-8.47-24.63l-4.77-14l33.68-6.94l2.01-0.3c4.45-0.59,8.46-3.83,9.97-8.06
	c1.51-4.23,0.47-9.28-2.6-12.56c-0.52-0.56-1.08-1.08-1.69-1.54c-0.05-0.05-0.1-0.1-0.15-0.15c-0.05,0-0.09,0-0.14,0
	c-0.53-0.41-1.1-0.77-1.69-1.08c-0.1-0.05-0.2-0.09-0.3-0.13c-0.31-0.12-0.62-0.22-0.93-0.3c-0.74-0.28-1.52-0.48-2.3-0.61
	c-0.1-0.06-0.2-0.11-0.3-0.17l-95.04-12.76C97.67,108.4,96.85,108.35,96.02,108.38z M390.67,73.58c-0.57,0.09-1.13,0.17-1.69,0.3
	l-77.2,15.08c-6.57,0.94-11.56,7.95-10.32,14.47c1.24,6.52,8.47,11.25,14.92,9.7l52.3-10.16l-10.62,20.46
	c-1.55,2.95-1.83,6.54-0.76,9.7l11.39,34.01l8.32,24.63l3.54,10.63c7.75-3.03,15.72-5.36,23.68-6.94l-21.84-65.26l19.84-38.63
	c2-3.83,1.71-8.67-0.61-12.3c-2.33-3.64-6.62-5.93-10.93-5.7H390.67z"></path>
</svg><style>@media (prefers-color-scheme: light) { :root { filter: none; } }
@media (prefers-color-scheme: dark) { :root { filter: none; } }
</style></svg>